<svg xmlns="http://www.w3.org/2000/svg" width="1000" height="720" viewBox="0 0 1000 720"><defs><linearGradient id="bg" x2="1" y2="1"><stop stop-color="#d8efe9"/><stop offset="1" stop-color="#e8f5f0"/></linearGradient></defs><rect x="0" y="0" width="1000" height="720" rx="0" fill="url(#bg)" /><circle cx="18" cy="18" r="1" fill="#a7cabe"/><circle cx="18" cy="47" r="1" fill="#a7cabe"/><circle cx="18" cy="76" r="1" fill="#a7cabe"/><circle cx="18" cy="105" r="1" fill="#a7cabe"/><circle cx="18" cy="134" r="1" fill="#a7cabe"/><circle cx="18" cy="163" r="1" fill="#a7cabe"/><circle cx="18" cy="192" r="1" fill="#a7cabe"/><circle cx="18" cy="221" r="1" fill="#a7cabe"/><circle cx="18" cy="250" r="1" fill="#a7cabe"/><circle cx="18" cy="279" r="1" fill="#a7cabe"/><circle cx="18" cy="308" r="1" fill="#a7cabe"/><circle cx="18" cy="337" r="1" fill="#a7cabe"/><circle cx="18" cy="366" r="1" fill="#a7cabe"/><circle cx="18" cy="395" r="1" fill="#a7cabe"/><circle cx="18" cy="424" r="1" fill="#a7cabe"/><circle cx="18" cy="453" r="1" fill="#a7cabe"/><circle cx="18" cy="482" r="1" fill="#a7cabe"/><circle cx="18" cy="511" r="1" fill="#a7cabe"/><circle cx="18" cy="540" r="1" fill="#a7cabe"/><circle cx="18" cy="569" r="1" fill="#a7cabe"/><circle cx="18" cy="598" r="1" fill="#a7cabe"/><circle cx="18" cy="627" r="1" fill="#a7cabe"/><circle cx="18" cy="656" r="1" fill="#a7cabe"/><circle cx="18" cy="685" r="1" fill="#a7cabe"/><circle cx="18" cy="714" r="1" fill="#a7cabe"/><circle cx="47" cy="18" r="1" fill="#a7cabe"/><circle cx="47" cy="47" r="1" fill="#a7cabe"/><circle cx="47" cy="76" r="1" fill="#a7cabe"/><circle cx="47" cy="105" r="1" fill="#a7cabe"/><circle cx="47" cy="134" r="1" fill="#a7cabe"/><circle cx="47" cy="163" r="1" fill="#a7cabe"/><circle cx="47" cy="192" r="1" fill="#a7cabe"/><circle cx="47" cy="221" r="1" fill="#a7cabe"/><circle cx="47" cy="250" r="1" fill="#a7cabe"/><circle cx="47" cy="279" r="1" fill="#a7cabe"/><circle cx="47" cy="308" r="1" fill="#a7cabe"/><circle cx="47" cy="337" r="1" fill="#a7cabe"/><circle cx="47" cy="366" r="1" fill="#a7cabe"/><circle cx="47" cy="395" r="1" fill="#a7cabe"/><circle cx="47" cy="424" r="1" fill="#a7cabe"/><circle cx="47" cy="453" r="1" fill="#a7cabe"/><circle cx="47" cy="482" r="1" fill="#a7cabe"/><circle cx="47" cy="511" r="1" fill="#a7cabe"/><circle cx="47" cy="540" r="1" fill="#a7cabe"/><circle cx="47" cy="569" r="1" fill="#a7cabe"/><circle cx="47" cy="598" r="1" fill="#a7cabe"/><circle cx="47" cy="627" r="1" fill="#a7cabe"/><circle cx="47" cy="656" r="1" fill="#a7cabe"/><circle cx="47" cy="685" r="1" fill="#a7cabe"/><circle cx="47" cy="714" r="1" fill="#a7cabe"/><circle cx="76" cy="18" r="1" fill="#a7cabe"/><circle cx="76" cy="47" r="1" fill="#a7cabe"/><circle cx="76" cy="76" r="1" fill="#a7cabe"/><circle cx="76" cy="105" r="1" fill="#a7cabe"/><circle cx="76" cy="134" r="1" fill="#a7cabe"/><circle cx="76" cy="163" r="1" fill="#a7cabe"/><circle cx="76" cy="192" r="1" fill="#a7cabe"/><circle cx="76" cy="221" r="1" fill="#a7cabe"/><circle cx="76" cy="250" r="1" fill="#a7cabe"/><circle cx="76" cy="279" r="1" fill="#a7cabe"/><circle cx="76" cy="308" r="1" fill="#a7cabe"/><circle cx="76" cy="337" r="1" fill="#a7cabe"/><circle cx="76" cy="366" r="1" fill="#a7cabe"/><circle cx="76" cy="395" r="1" fill="#a7cabe"/><circle cx="76" cy="424" r="1" fill="#a7cabe"/><circle cx="76" cy="453" r="1" fill="#a7cabe"/><circle cx="76" cy="482" r="1" fill="#a7cabe"/><circle cx="76" cy="511" r="1" fill="#a7cabe"/><circle cx="76" cy="540" r="1" fill="#a7cabe"/><circle cx="76" cy="569" r="1" fill="#a7cabe"/><circle cx="76" cy="598" r="1" fill="#a7cabe"/><circle cx="76" cy="627" r="1" fill="#a7cabe"/><circle cx="76" cy="656" r="1" fill="#a7cabe"/><circle cx="76" cy="685" r="1" fill="#a7cabe"/><circle cx="76" cy="714" r="1" fill="#a7cabe"/><circle cx="105" cy="18" r="1" fill="#a7cabe"/><circle cx="105" cy="47" r="1" fill="#a7cabe"/><circle cx="105" cy="76" r="1" fill="#a7cabe"/><circle cx="105" cy="105" r="1" fill="#a7cabe"/><circle cx="105" cy="134" r="1" fill="#a7cabe"/><circle cx="105" cy="163" r="1" fill="#a7cabe"/><circle cx="105" cy="192" r="1" fill="#a7cabe"/><circle cx="105" cy="221" r="1" fill="#a7cabe"/><circle cx="105" cy="250" r="1" fill="#a7cabe"/><circle cx="105" cy="279" r="1" fill="#a7cabe"/><circle cx="105" cy="308" r="1" fill="#a7cabe"/><circle cx="105" cy="337" r="1" fill="#a7cabe"/><circle cx="105" cy="366" r="1" fill="#a7cabe"/><circle cx="105" cy="395" r="1" fill="#a7cabe"/><circle cx="105" cy="424" r="1" fill="#a7cabe"/><circle cx="105" cy="453" r="1" fill="#a7cabe"/><circle cx="105" cy="482" r="1" fill="#a7cabe"/><circle cx="105" cy="511" r="1" fill="#a7cabe"/><circle cx="105" cy="540" r="1" fill="#a7cabe"/><circle cx="105" cy="569" r="1" fill="#a7cabe"/><circle cx="105" cy="598" r="1" fill="#a7cabe"/><circle cx="105" cy="627" r="1" fill="#a7cabe"/><circle cx="105" cy="656" r="1" fill="#a7cabe"/><circle cx="105" cy="685" r="1" fill="#a7cabe"/><circle cx="105" cy="714" r="1" fill="#a7cabe"/><circle cx="134" cy="18" r="1" fill="#a7cabe"/><circle cx="134" cy="47" r="1" fill="#a7cabe"/><circle cx="134" cy="76" r="1" fill="#a7cabe"/><circle cx="134" cy="105" r="1" fill="#a7cabe"/><circle cx="134" cy="134" r="1" fill="#a7cabe"/><circle cx="134" cy="163" r="1" fill="#a7cabe"/><circle cx="134" cy="192" r="1" fill="#a7cabe"/><circle cx="134" cy="221" r="1" fill="#a7cabe"/><circle cx="134" cy="250" r="1" fill="#a7cabe"/><circle cx="134" cy="279" r="1" fill="#a7cabe"/><circle cx="134" cy="308" r="1" fill="#a7cabe"/><circle cx="134" cy="337" r="1" fill="#a7cabe"/><circle cx="134" cy="366" r="1" fill="#a7cabe"/><circle cx="134" cy="395" r="1" fill="#a7cabe"/><circle cx="134" cy="424" r="1" fill="#a7cabe"/><circle cx="134" cy="453" r="1" fill="#a7cabe"/><circle cx="134" cy="482" r="1" fill="#a7cabe"/><circle cx="134" cy="511" r="1" fill="#a7cabe"/><circle cx="134" cy="540" r="1" fill="#a7cabe"/><circle cx="134" cy="569" r="1" fill="#a7cabe"/><circle cx="134" cy="598" r="1" fill="#a7cabe"/><circle cx="134" cy="627" r="1" fill="#a7cabe"/><circle cx="134" cy="656" r="1" fill="#a7cabe"/><circle cx="134" cy="685" r="1" fill="#a7cabe"/><circle cx="134" cy="714" r="1" fill="#a7cabe"/><circle cx="163" cy="18" r="1" fill="#a7cabe"/><circle cx="163" cy="47" r="1" fill="#a7cabe"/><circle cx="163" cy="76" r="1" fill="#a7cabe"/><circle cx="163" cy="105" r="1" fill="#a7cabe"/><circle cx="163" cy="134" r="1" fill="#a7cabe"/><circle cx="163" cy="163" r="1" fill="#a7cabe"/><circle cx="163" cy="192" r="1" fill="#a7cabe"/><circle cx="163" cy="221" r="1" fill="#a7cabe"/><circle cx="163" cy="250" r="1" fill="#a7cabe"/><circle cx="163" cy="279" r="1" fill="#a7cabe"/><circle cx="163" cy="308" r="1" fill="#a7cabe"/><circle cx="163" cy="337" r="1" fill="#a7cabe"/><circle cx="163" cy="366" r="1" fill="#a7cabe"/><circle cx="163" cy="395" r="1" fill="#a7cabe"/><circle cx="163" cy="424" r="1" fill="#a7cabe"/><circle cx="163" cy="453" r="1" fill="#a7cabe"/><circle cx="163" cy="482" r="1" fill="#a7cabe"/><circle cx="163" cy="511" r="1" fill="#a7cabe"/><circle cx="163" cy="540" r="1" fill="#a7cabe"/><circle cx="163" cy="569" r="1" fill="#a7cabe"/><circle cx="163" cy="598" r="1" fill="#a7cabe"/><circle cx="163" cy="627" r="1" fill="#a7cabe"/><circle cx="163" cy="656" r="1" fill="#a7cabe"/><circle cx="163" cy="685" r="1" fill="#a7cabe"/><circle cx="163" cy="714" r="1" fill="#a7cabe"/><circle cx="192" cy="18" r="1" fill="#a7cabe"/><circle cx="192" cy="47" r="1" fill="#a7cabe"/><circle cx="192" cy="76" r="1" fill="#a7cabe"/><circle cx="192" cy="105" r="1" fill="#a7cabe"/><circle cx="192" cy="134" r="1" fill="#a7cabe"/><circle cx="192" cy="163" r="1" fill="#a7cabe"/><circle cx="192" cy="192" r="1" fill="#a7cabe"/><circle cx="192" cy="221" r="1" fill="#a7cabe"/><circle cx="192" cy="250" r="1" fill="#a7cabe"/><circle cx="192" cy="279" r="1" fill="#a7cabe"/><circle cx="192" cy="308" r="1" fill="#a7cabe"/><circle cx="192" cy="337" r="1" fill="#a7cabe"/><circle cx="192" cy="366" r="1" fill="#a7cabe"/><circle cx="192" cy="395" r="1" fill="#a7cabe"/><circle cx="192" cy="424" r="1" fill="#a7cabe"/><circle cx="192" cy="453" r="1" fill="#a7cabe"/><circle cx="192" cy="482" r="1" fill="#a7cabe"/><circle cx="192" cy="511" r="1" fill="#a7cabe"/><circle cx="192" cy="540" r="1" fill="#a7cabe"/><circle cx="192" cy="569" r="1" fill="#a7cabe"/><circle cx="192" cy="598" r="1" fill="#a7cabe"/><circle cx="192" cy="627" r="1" fill="#a7cabe"/><circle cx="192" cy="656" r="1" fill="#a7cabe"/><circle cx="192" cy="685" r="1" fill="#a7cabe"/><circle cx="192" cy="714" r="1" fill="#a7cabe"/><circle cx="221" cy="18" r="1" fill="#a7cabe"/><circle cx="221" cy="47" r="1" fill="#a7cabe"/><circle cx="221" cy="76" r="1" fill="#a7cabe"/><circle cx="221" cy="105" r="1" fill="#a7cabe"/><circle cx="221" cy="134" r="1" fill="#a7cabe"/><circle cx="221" cy="163" r="1" fill="#a7cabe"/><circle cx="221" cy="192" r="1" fill="#a7cabe"/><circle cx="221" cy="221" r="1" fill="#a7cabe"/><circle cx="221" cy="250" r="1" fill="#a7cabe"/><circle cx="221" cy="279" r="1" fill="#a7cabe"/><circle cx="221" cy="308" r="1" fill="#a7cabe"/><circle cx="221" cy="337" r="1" fill="#a7cabe"/><circle cx="221" cy="366" r="1" fill="#a7cabe"/><circle cx="221" cy="395" r="1" fill="#a7cabe"/><circle cx="221" cy="424" r="1" fill="#a7cabe"/><circle cx="221" cy="453" r="1" fill="#a7cabe"/><circle cx="221" cy="482" r="1" fill="#a7cabe"/><circle cx="221" cy="511" r="1" fill="#a7cabe"/><circle cx="221" cy="540" r="1" fill="#a7cabe"/><circle cx="221" cy="569" r="1" fill="#a7cabe"/><circle cx="221" cy="598" r="1" fill="#a7cabe"/><circle cx="221" cy="627" r="1" fill="#a7cabe"/><circle cx="221" cy="656" r="1" fill="#a7cabe"/><circle cx="221" cy="685" r="1" fill="#a7cabe"/><circle cx="221" cy="714" r="1" fill="#a7cabe"/><circle cx="250" cy="18" r="1" fill="#a7cabe"/><circle cx="250" cy="47" r="1" fill="#a7cabe"/><circle cx="250" cy="76" r="1" fill="#a7cabe"/><circle cx="250" cy="105" r="1" fill="#a7cabe"/><circle cx="250" cy="134" r="1" fill="#a7cabe"/><circle cx="250" cy="163" r="1" fill="#a7cabe"/><circle cx="250" cy="192" r="1" fill="#a7cabe"/><circle cx="250" cy="221" r="1" fill="#a7cabe"/><circle cx="250" cy="250" r="1" fill="#a7cabe"/><circle cx="250" cy="279" r="1" fill="#a7cabe"/><circle cx="250" cy="308" r="1" fill="#a7cabe"/><circle cx="250" cy="337" r="1" fill="#a7cabe"/><circle cx="250" cy="366" r="1" fill="#a7cabe"/><circle cx="250" cy="395" r="1" fill="#a7cabe"/><circle cx="250" cy="424" r="1" fill="#a7cabe"/><circle cx="250" cy="453" r="1" fill="#a7cabe"/><circle cx="250" cy="482" r="1" fill="#a7cabe"/><circle cx="250" cy="511" r="1" fill="#a7cabe"/><circle cx="250" cy="540" r="1" fill="#a7cabe"/><circle cx="250" cy="569" r="1" fill="#a7cabe"/><circle cx="250" cy="598" r="1" fill="#a7cabe"/><circle cx="250" cy="627" r="1" fill="#a7cabe"/><circle cx="250" cy="656" r="1" fill="#a7cabe"/><circle cx="250" cy="685" r="1" fill="#a7cabe"/><circle cx="250" cy="714" r="1" fill="#a7cabe"/><circle cx="279" cy="18" r="1" fill="#a7cabe"/><circle cx="279" cy="47" r="1" fill="#a7cabe"/><circle cx="279" cy="76" r="1" fill="#a7cabe"/><circle cx="279" cy="105" r="1" fill="#a7cabe"/><circle cx="279" cy="134" r="1" fill="#a7cabe"/><circle cx="279" cy="163" r="1" fill="#a7cabe"/><circle cx="279" cy="192" r="1" fill="#a7cabe"/><circle cx="279" cy="221" r="1" fill="#a7cabe"/><circle cx="279" cy="250" r="1" fill="#a7cabe"/><circle cx="279" cy="279" r="1" fill="#a7cabe"/><circle cx="279" cy="308" r="1" fill="#a7cabe"/><circle cx="279" cy="337" r="1" fill="#a7cabe"/><circle cx="279" cy="366" r="1" fill="#a7cabe"/><circle cx="279" cy="395" r="1" fill="#a7cabe"/><circle cx="279" cy="424" r="1" fill="#a7cabe"/><circle cx="279" cy="453" r="1" fill="#a7cabe"/><circle cx="279" cy="482" r="1" fill="#a7cabe"/><circle cx="279" cy="511" r="1" fill="#a7cabe"/><circle cx="279" cy="540" r="1" fill="#a7cabe"/><circle cx="279" cy="569" r="1" fill="#a7cabe"/><circle cx="279" cy="598" r="1" fill="#a7cabe"/><circle cx="279" cy="627" r="1" fill="#a7cabe"/><circle cx="279" cy="656" r="1" fill="#a7cabe"/><circle cx="279" cy="685" r="1" fill="#a7cabe"/><circle cx="279" cy="714" r="1" fill="#a7cabe"/><circle cx="308" cy="18" r="1" fill="#a7cabe"/><circle cx="308" cy="47" r="1" fill="#a7cabe"/><circle cx="308" cy="76" r="1" fill="#a7cabe"/><circle cx="308" cy="105" r="1" fill="#a7cabe"/><circle cx="308" cy="134" r="1" fill="#a7cabe"/><circle cx="308" cy="163" r="1" fill="#a7cabe"/><circle cx="308" cy="192" r="1" fill="#a7cabe"/><circle cx="308" cy="221" r="1" fill="#a7cabe"/><circle cx="308" cy="250" r="1" fill="#a7cabe"/><circle cx="308" cy="279" r="1" fill="#a7cabe"/><circle cx="308" cy="308" r="1" fill="#a7cabe"/><circle cx="308" cy="337" r="1" fill="#a7cabe"/><circle cx="308" cy="366" r="1" fill="#a7cabe"/><circle cx="308" cy="395" r="1" fill="#a7cabe"/><circle cx="308" cy="424" r="1" fill="#a7cabe"/><circle cx="308" cy="453" r="1" fill="#a7cabe"/><circle cx="308" cy="482" r="1" fill="#a7cabe"/><circle cx="308" cy="511" r="1" fill="#a7cabe"/><circle cx="308" cy="540" r="1" fill="#a7cabe"/><circle cx="308" cy="569" r="1" fill="#a7cabe"/><circle cx="308" cy="598" r="1" fill="#a7cabe"/><circle cx="308" cy="627" r="1" fill="#a7cabe"/><circle cx="308" cy="656" r="1" fill="#a7cabe"/><circle cx="308" cy="685" r="1" fill="#a7cabe"/><circle cx="308" cy="714" r="1" fill="#a7cabe"/><circle cx="337" cy="18" r="1" fill="#a7cabe"/><circle cx="337" cy="47" r="1" fill="#a7cabe"/><circle cx="337" cy="76" r="1" fill="#a7cabe"/><circle cx="337" cy="105" r="1" fill="#a7cabe"/><circle cx="337" cy="134" r="1" fill="#a7cabe"/><circle cx="337" cy="163" r="1" fill="#a7cabe"/><circle cx="337" cy="192" r="1" fill="#a7cabe"/><circle cx="337" cy="221" r="1" fill="#a7cabe"/><circle cx="337" cy="250" r="1" fill="#a7cabe"/><circle cx="337" cy="279" r="1" fill="#a7cabe"/><circle cx="337" cy="308" r="1" fill="#a7cabe"/><circle cx="337" cy="337" r="1" fill="#a7cabe"/><circle cx="337" cy="366" r="1" fill="#a7cabe"/><circle cx="337" cy="395" r="1" fill="#a7cabe"/><circle cx="337" cy="424" r="1" fill="#a7cabe"/><circle cx="337" cy="453" r="1" fill="#a7cabe"/><circle cx="337" cy="482" r="1" fill="#a7cabe"/><circle cx="337" cy="511" r="1" fill="#a7cabe"/><circle cx="337" cy="540" r="1" fill="#a7cabe"/><circle cx="337" cy="569" r="1" fill="#a7cabe"/><circle cx="337" cy="598" r="1" fill="#a7cabe"/><circle cx="337" cy="627" r="1" fill="#a7cabe"/><circle cx="337" cy="656" r="1" fill="#a7cabe"/><circle cx="337" cy="685" r="1" fill="#a7cabe"/><circle cx="337" cy="714" r="1" fill="#a7cabe"/><circle cx="366" cy="18" r="1" fill="#a7cabe"/><circle cx="366" cy="47" r="1" fill="#a7cabe"/><circle cx="366" cy="76" r="1" fill="#a7cabe"/><circle cx="366" cy="105" r="1" fill="#a7cabe"/><circle cx="366" cy="134" r="1" fill="#a7cabe"/><circle cx="366" cy="163" r="1" fill="#a7cabe"/><circle cx="366" cy="192" r="1" fill="#a7cabe"/><circle cx="366" cy="221" r="1" fill="#a7cabe"/><circle cx="366" cy="250" r="1" fill="#a7cabe"/><circle cx="366" cy="279" r="1" fill="#a7cabe"/><circle cx="366" cy="308" r="1" fill="#a7cabe"/><circle cx="366" cy="337" r="1" fill="#a7cabe"/><circle cx="366" cy="366" r="1" fill="#a7cabe"/><circle cx="366" cy="395" r="1" fill="#a7cabe"/><circle cx="366" cy="424" r="1" fill="#a7cabe"/><circle cx="366" cy="453" r="1" fill="#a7cabe"/><circle cx="366" cy="482" r="1" fill="#a7cabe"/><circle cx="366" cy="511" r="1" fill="#a7cabe"/><circle cx="366" cy="540" r="1" fill="#a7cabe"/><circle cx="366" cy="569" r="1" fill="#a7cabe"/><circle cx="366" cy="598" r="1" fill="#a7cabe"/><circle cx="366" cy="627" r="1" fill="#a7cabe"/><circle cx="366" cy="656" r="1" fill="#a7cabe"/><circle cx="366" cy="685" r="1" fill="#a7cabe"/><circle cx="366" cy="714" r="1" fill="#a7cabe"/><circle cx="395" cy="18" r="1" fill="#a7cabe"/><circle cx="395" cy="47" r="1" fill="#a7cabe"/><circle cx="395" cy="76" r="1" fill="#a7cabe"/><circle cx="395" cy="105" r="1" fill="#a7cabe"/><circle cx="395" cy="134" r="1" fill="#a7cabe"/><circle cx="395" cy="163" r="1" fill="#a7cabe"/><circle cx="395" cy="192" r="1" fill="#a7cabe"/><circle cx="395" cy="221" r="1" fill="#a7cabe"/><circle cx="395" cy="250" r="1" fill="#a7cabe"/><circle cx="395" cy="279" r="1" fill="#a7cabe"/><circle cx="395" cy="308" r="1" fill="#a7cabe"/><circle cx="395" cy="337" r="1" fill="#a7cabe"/><circle cx="395" cy="366" r="1" fill="#a7cabe"/><circle cx="395" cy="395" r="1" fill="#a7cabe"/><circle cx="395" cy="424" r="1" fill="#a7cabe"/><circle cx="395" cy="453" r="1" fill="#a7cabe"/><circle cx="395" cy="482" r="1" fill="#a7cabe"/><circle cx="395" cy="511" r="1" fill="#a7cabe"/><circle cx="395" cy="540" r="1" fill="#a7cabe"/><circle cx="395" cy="569" r="1" fill="#a7cabe"/><circle cx="395" cy="598" r="1" fill="#a7cabe"/><circle cx="395" cy="627" r="1" fill="#a7cabe"/><circle cx="395" cy="656" r="1" fill="#a7cabe"/><circle cx="395" cy="685" r="1" fill="#a7cabe"/><circle cx="395" cy="714" r="1" fill="#a7cabe"/><circle cx="424" cy="18" r="1" fill="#a7cabe"/><circle cx="424" cy="47" r="1" fill="#a7cabe"/><circle cx="424" cy="76" r="1" fill="#a7cabe"/><circle cx="424" cy="105" r="1" fill="#a7cabe"/><circle cx="424" cy="134" r="1" fill="#a7cabe"/><circle cx="424" cy="163" r="1" fill="#a7cabe"/><circle cx="424" cy="192" r="1" fill="#a7cabe"/><circle cx="424" cy="221" r="1" fill="#a7cabe"/><circle cx="424" cy="250" r="1" fill="#a7cabe"/><circle cx="424" cy="279" r="1" fill="#a7cabe"/><circle cx="424" cy="308" r="1" fill="#a7cabe"/><circle cx="424" cy="337" r="1" fill="#a7cabe"/><circle cx="424" cy="366" r="1" fill="#a7cabe"/><circle cx="424" cy="395" r="1" fill="#a7cabe"/><circle cx="424" cy="424" r="1" fill="#a7cabe"/><circle cx="424" cy="453" r="1" fill="#a7cabe"/><circle cx="424" cy="482" r="1" fill="#a7cabe"/><circle cx="424" cy="511" r="1" fill="#a7cabe"/><circle cx="424" cy="540" r="1" fill="#a7cabe"/><circle cx="424" cy="569" r="1" fill="#a7cabe"/><circle cx="424" cy="598" r="1" fill="#a7cabe"/><circle cx="424" cy="627" r="1" fill="#a7cabe"/><circle cx="424" cy="656" r="1" fill="#a7cabe"/><circle cx="424" cy="685" r="1" fill="#a7cabe"/><circle cx="424" cy="714" r="1" fill="#a7cabe"/><circle cx="453" cy="18" r="1" fill="#a7cabe"/><circle cx="453" cy="47" r="1" fill="#a7cabe"/><circle cx="453" cy="76" r="1" fill="#a7cabe"/><circle cx="453" cy="105" r="1" fill="#a7cabe"/><circle cx="453" cy="134" r="1" fill="#a7cabe"/><circle cx="453" cy="163" r="1" fill="#a7cabe"/><circle cx="453" cy="192" r="1" fill="#a7cabe"/><circle cx="453" cy="221" r="1" fill="#a7cabe"/><circle cx="453" cy="250" r="1" fill="#a7cabe"/><circle cx="453" cy="279" r="1" fill="#a7cabe"/><circle cx="453" cy="308" r="1" fill="#a7cabe"/><circle cx="453" cy="337" r="1" fill="#a7cabe"/><circle cx="453" cy="366" r="1" fill="#a7cabe"/><circle cx="453" cy="395" r="1" fill="#a7cabe"/><circle cx="453" cy="424" r="1" fill="#a7cabe"/><circle cx="453" cy="453" r="1" fill="#a7cabe"/><circle cx="453" cy="482" r="1" fill="#a7cabe"/><circle cx="453" cy="511" r="1" fill="#a7cabe"/><circle cx="453" cy="540" r="1" fill="#a7cabe"/><circle cx="453" cy="569" r="1" fill="#a7cabe"/><circle cx="453" cy="598" r="1" fill="#a7cabe"/><circle cx="453" cy="627" r="1" fill="#a7cabe"/><circle cx="453" cy="656" r="1" fill="#a7cabe"/><circle cx="453" cy="685" r="1" fill="#a7cabe"/><circle cx="453" cy="714" r="1" fill="#a7cabe"/><circle cx="482" cy="18" r="1" fill="#a7cabe"/><circle cx="482" cy="47" r="1" fill="#a7cabe"/><circle cx="482" cy="76" r="1" fill="#a7cabe"/><circle cx="482" cy="105" r="1" fill="#a7cabe"/><circle cx="482" cy="134" r="1" fill="#a7cabe"/><circle cx="482" cy="163" r="1" fill="#a7cabe"/><circle cx="482" cy="192" r="1" fill="#a7cabe"/><circle cx="482" cy="221" r="1" fill="#a7cabe"/><circle cx="482" cy="250" r="1" fill="#a7cabe"/><circle cx="482" cy="279" r="1" fill="#a7cabe"/><circle cx="482" cy="308" r="1" fill="#a7cabe"/><circle cx="482" cy="337" r="1" fill="#a7cabe"/><circle cx="482" cy="366" r="1" fill="#a7cabe"/><circle cx="482" cy="395" r="1" fill="#a7cabe"/><circle cx="482" cy="424" r="1" fill="#a7cabe"/><circle cx="482" cy="453" r="1" fill="#a7cabe"/><circle cx="482" cy="482" r="1" fill="#a7cabe"/><circle cx="482" cy="511" r="1" fill="#a7cabe"/><circle cx="482" cy="540" r="1" fill="#a7cabe"/><circle cx="482" cy="569" r="1" fill="#a7cabe"/><circle cx="482" cy="598" r="1" fill="#a7cabe"/><circle cx="482" cy="627" r="1" fill="#a7cabe"/><circle cx="482" cy="656" r="1" fill="#a7cabe"/><circle cx="482" cy="685" r="1" fill="#a7cabe"/><circle cx="482" cy="714" r="1" fill="#a7cabe"/><circle cx="511" cy="18" r="1" fill="#a7cabe"/><circle cx="511" cy="47" r="1" fill="#a7cabe"/><circle cx="511" cy="76" r="1" fill="#a7cabe"/><circle cx="511" cy="105" r="1" fill="#a7cabe"/><circle cx="511" cy="134" r="1" fill="#a7cabe"/><circle cx="511" cy="163" r="1" fill="#a7cabe"/><circle cx="511" cy="192" r="1" fill="#a7cabe"/><circle cx="511" cy="221" r="1" fill="#a7cabe"/><circle cx="511" cy="250" r="1" fill="#a7cabe"/><circle cx="511" cy="279" r="1" fill="#a7cabe"/><circle cx="511" cy="308" r="1" fill="#a7cabe"/><circle cx="511" cy="337" r="1" fill="#a7cabe"/><circle cx="511" cy="366" r="1" fill="#a7cabe"/><circle cx="511" cy="395" r="1" fill="#a7cabe"/><circle cx="511" cy="424" r="1" fill="#a7cabe"/><circle cx="511" cy="453" r="1" fill="#a7cabe"/><circle cx="511" cy="482" r="1" fill="#a7cabe"/><circle cx="511" cy="511" r="1" fill="#a7cabe"/><circle cx="511" cy="540" r="1" fill="#a7cabe"/><circle cx="511" cy="569" r="1" fill="#a7cabe"/><circle cx="511" cy="598" r="1" fill="#a7cabe"/><circle cx="511" cy="627" r="1" fill="#a7cabe"/><circle cx="511" cy="656" r="1" fill="#a7cabe"/><circle cx="511" cy="685" r="1" fill="#a7cabe"/><circle cx="511" cy="714" r="1" fill="#a7cabe"/><circle cx="540" cy="18" r="1" fill="#a7cabe"/><circle cx="540" cy="47" r="1" fill="#a7cabe"/><circle cx="540" cy="76" r="1" fill="#a7cabe"/><circle cx="540" cy="105" r="1" fill="#a7cabe"/><circle cx="540" cy="134" r="1" fill="#a7cabe"/><circle cx="540" cy="163" r="1" fill="#a7cabe"/><circle cx="540" cy="192" r="1" fill="#a7cabe"/><circle cx="540" cy="221" r="1" fill="#a7cabe"/><circle cx="540" cy="250" r="1" fill="#a7cabe"/><circle cx="540" cy="279" r="1" fill="#a7cabe"/><circle cx="540" cy="308" r="1" fill="#a7cabe"/><circle cx="540" cy="337" r="1" fill="#a7cabe"/><circle cx="540" cy="366" r="1" fill="#a7cabe"/><circle cx="540" cy="395" r="1" fill="#a7cabe"/><circle cx="540" cy="424" r="1" fill="#a7cabe"/><circle cx="540" cy="453" r="1" fill="#a7cabe"/><circle cx="540" cy="482" r="1" fill="#a7cabe"/><circle cx="540" cy="511" r="1" fill="#a7cabe"/><circle cx="540" cy="540" r="1" fill="#a7cabe"/><circle cx="540" cy="569" r="1" fill="#a7cabe"/><circle cx="540" cy="598" r="1" fill="#a7cabe"/><circle cx="540" cy="627" r="1" fill="#a7cabe"/><circle cx="540" cy="656" r="1" fill="#a7cabe"/><circle cx="540" cy="685" r="1" fill="#a7cabe"/><circle cx="540" cy="714" r="1" fill="#a7cabe"/><circle cx="569" cy="18" r="1" fill="#a7cabe"/><circle cx="569" cy="47" r="1" fill="#a7cabe"/><circle cx="569" cy="76" r="1" fill="#a7cabe"/><circle cx="569" cy="105" r="1" fill="#a7cabe"/><circle cx="569" cy="134" r="1" fill="#a7cabe"/><circle cx="569" cy="163" r="1" fill="#a7cabe"/><circle cx="569" cy="192" r="1" fill="#a7cabe"/><circle cx="569" cy="221" r="1" fill="#a7cabe"/><circle cx="569" cy="250" r="1" fill="#a7cabe"/><circle cx="569" cy="279" r="1" fill="#a7cabe"/><circle cx="569" cy="308" r="1" fill="#a7cabe"/><circle cx="569" cy="337" r="1" fill="#a7cabe"/><circle cx="569" cy="366" r="1" fill="#a7cabe"/><circle cx="569" cy="395" r="1" fill="#a7cabe"/><circle cx="569" cy="424" r="1" fill="#a7cabe"/><circle cx="569" cy="453" r="1" fill="#a7cabe"/><circle cx="569" cy="482" r="1" fill="#a7cabe"/><circle cx="569" cy="511" r="1" fill="#a7cabe"/><circle cx="569" cy="540" r="1" fill="#a7cabe"/><circle cx="569" cy="569" r="1" fill="#a7cabe"/><circle cx="569" cy="598" r="1" fill="#a7cabe"/><circle cx="569" cy="627" r="1" fill="#a7cabe"/><circle cx="569" cy="656" r="1" fill="#a7cabe"/><circle cx="569" cy="685" r="1" fill="#a7cabe"/><circle cx="569" cy="714" r="1" fill="#a7cabe"/><circle cx="598" cy="18" r="1" fill="#a7cabe"/><circle cx="598" cy="47" r="1" fill="#a7cabe"/><circle cx="598" cy="76" r="1" fill="#a7cabe"/><circle cx="598" cy="105" r="1" fill="#a7cabe"/><circle cx="598" cy="134" r="1" fill="#a7cabe"/><circle cx="598" cy="163" r="1" fill="#a7cabe"/><circle cx="598" cy="192" r="1" fill="#a7cabe"/><circle cx="598" cy="221" r="1" fill="#a7cabe"/><circle cx="598" cy="250" r="1" fill="#a7cabe"/><circle cx="598" cy="279" r="1" fill="#a7cabe"/><circle cx="598" cy="308" r="1" fill="#a7cabe"/><circle cx="598" cy="337" r="1" fill="#a7cabe"/><circle cx="598" cy="366" r="1" fill="#a7cabe"/><circle cx="598" cy="395" r="1" fill="#a7cabe"/><circle cx="598" cy="424" r="1" fill="#a7cabe"/><circle cx="598" cy="453" r="1" fill="#a7cabe"/><circle cx="598" cy="482" r="1" fill="#a7cabe"/><circle cx="598" cy="511" r="1" fill="#a7cabe"/><circle cx="598" cy="540" r="1" fill="#a7cabe"/><circle cx="598" cy="569" r="1" fill="#a7cabe"/><circle cx="598" cy="598" r="1" fill="#a7cabe"/><circle cx="598" cy="627" r="1" fill="#a7cabe"/><circle cx="598" cy="656" r="1" fill="#a7cabe"/><circle cx="598" cy="685" r="1" fill="#a7cabe"/><circle cx="598" cy="714" r="1" fill="#a7cabe"/><circle cx="627" cy="18" r="1" fill="#a7cabe"/><circle cx="627" cy="47" r="1" fill="#a7cabe"/><circle cx="627" cy="76" r="1" fill="#a7cabe"/><circle cx="627" cy="105" r="1" fill="#a7cabe"/><circle cx="627" cy="134" r="1" fill="#a7cabe"/><circle cx="627" cy="163" r="1" fill="#a7cabe"/><circle cx="627" cy="192" r="1" fill="#a7cabe"/><circle cx="627" cy="221" r="1" fill="#a7cabe"/><circle cx="627" cy="250" r="1" fill="#a7cabe"/><circle cx="627" cy="279" r="1" fill="#a7cabe"/><circle cx="627" cy="308" r="1" fill="#a7cabe"/><circle cx="627" cy="337" r="1" fill="#a7cabe"/><circle cx="627" cy="366" r="1" fill="#a7cabe"/><circle cx="627" cy="395" r="1" fill="#a7cabe"/><circle cx="627" cy="424" r="1" fill="#a7cabe"/><circle cx="627" cy="453" r="1" fill="#a7cabe"/><circle cx="627" cy="482" r="1" fill="#a7cabe"/><circle cx="627" cy="511" r="1" fill="#a7cabe"/><circle cx="627" cy="540" r="1" fill="#a7cabe"/><circle cx="627" cy="569" r="1" fill="#a7cabe"/><circle cx="627" cy="598" r="1" fill="#a7cabe"/><circle cx="627" cy="627" r="1" fill="#a7cabe"/><circle cx="627" cy="656" r="1" fill="#a7cabe"/><circle cx="627" cy="685" r="1" fill="#a7cabe"/><circle cx="627" cy="714" r="1" fill="#a7cabe"/><circle cx="656" cy="18" r="1" fill="#a7cabe"/><circle cx="656" cy="47" r="1" fill="#a7cabe"/><circle cx="656" cy="76" r="1" fill="#a7cabe"/><circle cx="656" cy="105" r="1" fill="#a7cabe"/><circle cx="656" cy="134" r="1" fill="#a7cabe"/><circle cx="656" cy="163" r="1" fill="#a7cabe"/><circle cx="656" cy="192" r="1" fill="#a7cabe"/><circle cx="656" cy="221" r="1" fill="#a7cabe"/><circle cx="656" cy="250" r="1" fill="#a7cabe"/><circle cx="656" cy="279" r="1" fill="#a7cabe"/><circle cx="656" cy="308" r="1" fill="#a7cabe"/><circle cx="656" cy="337" r="1" fill="#a7cabe"/><circle cx="656" cy="366" r="1" fill="#a7cabe"/><circle cx="656" cy="395" r="1" fill="#a7cabe"/><circle cx="656" cy="424" r="1" fill="#a7cabe"/><circle cx="656" cy="453" r="1" fill="#a7cabe"/><circle cx="656" cy="482" r="1" fill="#a7cabe"/><circle cx="656" cy="511" r="1" fill="#a7cabe"/><circle cx="656" cy="540" r="1" fill="#a7cabe"/><circle cx="656" cy="569" r="1" fill="#a7cabe"/><circle cx="656" cy="598" r="1" fill="#a7cabe"/><circle cx="656" cy="627" r="1" fill="#a7cabe"/><circle cx="656" cy="656" r="1" fill="#a7cabe"/><circle cx="656" cy="685" r="1" fill="#a7cabe"/><circle cx="656" cy="714" r="1" fill="#a7cabe"/><circle cx="685" cy="18" r="1" fill="#a7cabe"/><circle cx="685" cy="47" r="1" fill="#a7cabe"/><circle cx="685" cy="76" r="1" fill="#a7cabe"/><circle cx="685" cy="105" r="1" fill="#a7cabe"/><circle cx="685" cy="134" r="1" fill="#a7cabe"/><circle cx="685" cy="163" r="1" fill="#a7cabe"/><circle cx="685" cy="192" r="1" fill="#a7cabe"/><circle cx="685" cy="221" r="1" fill="#a7cabe"/><circle cx="685" cy="250" r="1" fill="#a7cabe"/><circle cx="685" cy="279" r="1" fill="#a7cabe"/><circle cx="685" cy="308" r="1" fill="#a7cabe"/><circle cx="685" cy="337" r="1" fill="#a7cabe"/><circle cx="685" cy="366" r="1" fill="#a7cabe"/><circle cx="685" cy="395" r="1" fill="#a7cabe"/><circle cx="685" cy="424" r="1" fill="#a7cabe"/><circle cx="685" cy="453" r="1" fill="#a7cabe"/><circle cx="685" cy="482" r="1" fill="#a7cabe"/><circle cx="685" cy="511" r="1" fill="#a7cabe"/><circle cx="685" cy="540" r="1" fill="#a7cabe"/><circle cx="685" cy="569" r="1" fill="#a7cabe"/><circle cx="685" cy="598" r="1" fill="#a7cabe"/><circle cx="685" cy="627" r="1" fill="#a7cabe"/><circle cx="685" cy="656" r="1" fill="#a7cabe"/><circle cx="685" cy="685" r="1" fill="#a7cabe"/><circle cx="685" cy="714" r="1" fill="#a7cabe"/><circle cx="714" cy="18" r="1" fill="#a7cabe"/><circle cx="714" cy="47" r="1" fill="#a7cabe"/><circle cx="714" cy="76" r="1" fill="#a7cabe"/><circle cx="714" cy="105" r="1" fill="#a7cabe"/><circle cx="714" cy="134" r="1" fill="#a7cabe"/><circle cx="714" cy="163" r="1" fill="#a7cabe"/><circle cx="714" cy="192" r="1" fill="#a7cabe"/><circle cx="714" cy="221" r="1" fill="#a7cabe"/><circle cx="714" cy="250" r="1" fill="#a7cabe"/><circle cx="714" cy="279" r="1" fill="#a7cabe"/><circle cx="714" cy="308" r="1" fill="#a7cabe"/><circle cx="714" cy="337" r="1" fill="#a7cabe"/><circle cx="714" cy="366" r="1" fill="#a7cabe"/><circle cx="714" cy="395" r="1" fill="#a7cabe"/><circle cx="714" cy="424" r="1" fill="#a7cabe"/><circle cx="714" cy="453" r="1" fill="#a7cabe"/><circle cx="714" cy="482" r="1" fill="#a7cabe"/><circle cx="714" cy="511" r="1" fill="#a7cabe"/><circle cx="714" cy="540" r="1" fill="#a7cabe"/><circle cx="714" cy="569" r="1" fill="#a7cabe"/><circle cx="714" cy="598" r="1" fill="#a7cabe"/><circle cx="714" cy="627" r="1" fill="#a7cabe"/><circle cx="714" cy="656" r="1" fill="#a7cabe"/><circle cx="714" cy="685" r="1" fill="#a7cabe"/><circle cx="714" cy="714" r="1" fill="#a7cabe"/><circle cx="743" cy="18" r="1" fill="#a7cabe"/><circle cx="743" cy="47" r="1" fill="#a7cabe"/><circle cx="743" cy="76" r="1" fill="#a7cabe"/><circle cx="743" cy="105" r="1" fill="#a7cabe"/><circle cx="743" cy="134" r="1" fill="#a7cabe"/><circle cx="743" cy="163" r="1" fill="#a7cabe"/><circle cx="743" cy="192" r="1" fill="#a7cabe"/><circle cx="743" cy="221" r="1" fill="#a7cabe"/><circle cx="743" cy="250" r="1" fill="#a7cabe"/><circle cx="743" cy="279" r="1" fill="#a7cabe"/><circle cx="743" cy="308" r="1" fill="#a7cabe"/><circle cx="743" cy="337" r="1" fill="#a7cabe"/><circle cx="743" cy="366" r="1" fill="#a7cabe"/><circle cx="743" cy="395" r="1" fill="#a7cabe"/><circle cx="743" cy="424" r="1" fill="#a7cabe"/><circle cx="743" cy="453" r="1" fill="#a7cabe"/><circle cx="743" cy="482" r="1" fill="#a7cabe"/><circle cx="743" cy="511" r="1" fill="#a7cabe"/><circle cx="743" cy="540" r="1" fill="#a7cabe"/><circle cx="743" cy="569" r="1" fill="#a7cabe"/><circle cx="743" cy="598" r="1" fill="#a7cabe"/><circle cx="743" cy="627" r="1" fill="#a7cabe"/><circle cx="743" cy="656" r="1" fill="#a7cabe"/><circle cx="743" cy="685" r="1" fill="#a7cabe"/><circle cx="743" cy="714" r="1" fill="#a7cabe"/><circle cx="772" cy="18" r="1" fill="#a7cabe"/><circle cx="772" cy="47" r="1" fill="#a7cabe"/><circle cx="772" cy="76" r="1" fill="#a7cabe"/><circle cx="772" cy="105" r="1" fill="#a7cabe"/><circle cx="772" cy="134" r="1" fill="#a7cabe"/><circle cx="772" cy="163" r="1" fill="#a7cabe"/><circle cx="772" cy="192" r="1" fill="#a7cabe"/><circle cx="772" cy="221" r="1" fill="#a7cabe"/><circle cx="772" cy="250" r="1" fill="#a7cabe"/><circle cx="772" cy="279" r="1" fill="#a7cabe"/><circle cx="772" cy="308" r="1" fill="#a7cabe"/><circle cx="772" cy="337" r="1" fill="#a7cabe"/><circle cx="772" cy="366" r="1" fill="#a7cabe"/><circle cx="772" cy="395" r="1" fill="#a7cabe"/><circle cx="772" cy="424" r="1" fill="#a7cabe"/><circle cx="772" cy="453" r="1" fill="#a7cabe"/><circle cx="772" cy="482" r="1" fill="#a7cabe"/><circle cx="772" cy="511" r="1" fill="#a7cabe"/><circle cx="772" cy="540" r="1" fill="#a7cabe"/><circle cx="772" cy="569" r="1" fill="#a7cabe"/><circle cx="772" cy="598" r="1" fill="#a7cabe"/><circle cx="772" cy="627" r="1" fill="#a7cabe"/><circle cx="772" cy="656" r="1" fill="#a7cabe"/><circle cx="772" cy="685" r="1" fill="#a7cabe"/><circle cx="772" cy="714" r="1" fill="#a7cabe"/><circle cx="801" cy="18" r="1" fill="#a7cabe"/><circle cx="801" cy="47" r="1" fill="#a7cabe"/><circle cx="801" cy="76" r="1" fill="#a7cabe"/><circle cx="801" cy="105" r="1" fill="#a7cabe"/><circle cx="801" cy="134" r="1" fill="#a7cabe"/><circle cx="801" cy="163" r="1" fill="#a7cabe"/><circle cx="801" cy="192" r="1" fill="#a7cabe"/><circle cx="801" cy="221" r="1" fill="#a7cabe"/><circle cx="801" cy="250" r="1" fill="#a7cabe"/><circle cx="801" cy="279" r="1" fill="#a7cabe"/><circle cx="801" cy="308" r="1" fill="#a7cabe"/><circle cx="801" cy="337" r="1" fill="#a7cabe"/><circle cx="801" cy="366" r="1" fill="#a7cabe"/><circle cx="801" cy="395" r="1" fill="#a7cabe"/><circle cx="801" cy="424" r="1" fill="#a7cabe"/><circle cx="801" cy="453" r="1" fill="#a7cabe"/><circle cx="801" cy="482" r="1" fill="#a7cabe"/><circle cx="801" cy="511" r="1" fill="#a7cabe"/><circle cx="801" cy="540" r="1" fill="#a7cabe"/><circle cx="801" cy="569" r="1" fill="#a7cabe"/><circle cx="801" cy="598" r="1" fill="#a7cabe"/><circle cx="801" cy="627" r="1" fill="#a7cabe"/><circle cx="801" cy="656" r="1" fill="#a7cabe"/><circle cx="801" cy="685" r="1" fill="#a7cabe"/><circle cx="801" cy="714" r="1" fill="#a7cabe"/><circle cx="830" cy="18" r="1" fill="#a7cabe"/><circle cx="830" cy="47" r="1" fill="#a7cabe"/><circle cx="830" cy="76" r="1" fill="#a7cabe"/><circle cx="830" cy="105" r="1" fill="#a7cabe"/><circle cx="830" cy="134" r="1" fill="#a7cabe"/><circle cx="830" cy="163" r="1" fill="#a7cabe"/><circle cx="830" cy="192" r="1" fill="#a7cabe"/><circle cx="830" cy="221" r="1" fill="#a7cabe"/><circle cx="830" cy="250" r="1" fill="#a7cabe"/><circle cx="830" cy="279" r="1" fill="#a7cabe"/><circle cx="830" cy="308" r="1" fill="#a7cabe"/><circle cx="830" cy="337" r="1" fill="#a7cabe"/><circle cx="830" cy="366" r="1" fill="#a7cabe"/><circle cx="830" cy="395" r="1" fill="#a7cabe"/><circle cx="830" cy="424" r="1" fill="#a7cabe"/><circle cx="830" cy="453" r="1" fill="#a7cabe"/><circle cx="830" cy="482" r="1" fill="#a7cabe"/><circle cx="830" cy="511" r="1" fill="#a7cabe"/><circle cx="830" cy="540" r="1" fill="#a7cabe"/><circle cx="830" cy="569" r="1" fill="#a7cabe"/><circle cx="830" cy="598" r="1" fill="#a7cabe"/><circle cx="830" cy="627" r="1" fill="#a7cabe"/><circle cx="830" cy="656" r="1" fill="#a7cabe"/><circle cx="830" cy="685" r="1" fill="#a7cabe"/><circle cx="830" cy="714" r="1" fill="#a7cabe"/><circle cx="859" cy="18" r="1" fill="#a7cabe"/><circle cx="859" cy="47" r="1" fill="#a7cabe"/><circle cx="859" cy="76" r="1" fill="#a7cabe"/><circle cx="859" cy="105" r="1" fill="#a7cabe"/><circle cx="859" cy="134" r="1" fill="#a7cabe"/><circle cx="859" cy="163" r="1" fill="#a7cabe"/><circle cx="859" cy="192" r="1" fill="#a7cabe"/><circle cx="859" cy="221" r="1" fill="#a7cabe"/><circle cx="859" cy="250" r="1" fill="#a7cabe"/><circle cx="859" cy="279" r="1" fill="#a7cabe"/><circle cx="859" cy="308" r="1" fill="#a7cabe"/><circle cx="859" cy="337" r="1" fill="#a7cabe"/><circle cx="859" cy="366" r="1" fill="#a7cabe"/><circle cx="859" cy="395" r="1" fill="#a7cabe"/><circle cx="859" cy="424" r="1" fill="#a7cabe"/><circle cx="859" cy="453" r="1" fill="#a7cabe"/><circle cx="859" cy="482" r="1" fill="#a7cabe"/><circle cx="859" cy="511" r="1" fill="#a7cabe"/><circle cx="859" cy="540" r="1" fill="#a7cabe"/><circle cx="859" cy="569" r="1" fill="#a7cabe"/><circle cx="859" cy="598" r="1" fill="#a7cabe"/><circle cx="859" cy="627" r="1" fill="#a7cabe"/><circle cx="859" cy="656" r="1" fill="#a7cabe"/><circle cx="859" cy="685" r="1" fill="#a7cabe"/><circle cx="859" cy="714" r="1" fill="#a7cabe"/><circle cx="888" cy="18" r="1" fill="#a7cabe"/><circle cx="888" cy="47" r="1" fill="#a7cabe"/><circle cx="888" cy="76" r="1" fill="#a7cabe"/><circle cx="888" cy="105" r="1" fill="#a7cabe"/><circle cx="888" cy="134" r="1" fill="#a7cabe"/><circle cx="888" cy="163" r="1" fill="#a7cabe"/><circle cx="888" cy="192" r="1" fill="#a7cabe"/><circle cx="888" cy="221" r="1" fill="#a7cabe"/><circle cx="888" cy="250" r="1" fill="#a7cabe"/><circle cx="888" cy="279" r="1" fill="#a7cabe"/><circle cx="888" cy="308" r="1" fill="#a7cabe"/><circle cx="888" cy="337" r="1" fill="#a7cabe"/><circle cx="888" cy="366" r="1" fill="#a7cabe"/><circle cx="888" cy="395" r="1" fill="#a7cabe"/><circle cx="888" cy="424" r="1" fill="#a7cabe"/><circle cx="888" cy="453" r="1" fill="#a7cabe"/><circle cx="888" cy="482" r="1" fill="#a7cabe"/><circle cx="888" cy="511" r="1" fill="#a7cabe"/><circle cx="888" cy="540" r="1" fill="#a7cabe"/><circle cx="888" cy="569" r="1" fill="#a7cabe"/><circle cx="888" cy="598" r="1" fill="#a7cabe"/><circle cx="888" cy="627" r="1" fill="#a7cabe"/><circle cx="888" cy="656" r="1" fill="#a7cabe"/><circle cx="888" cy="685" r="1" fill="#a7cabe"/><circle cx="888" cy="714" r="1" fill="#a7cabe"/><circle cx="917" cy="18" r="1" fill="#a7cabe"/><circle cx="917" cy="47" r="1" fill="#a7cabe"/><circle cx="917" cy="76" r="1" fill="#a7cabe"/><circle cx="917" cy="105" r="1" fill="#a7cabe"/><circle cx="917" cy="134" r="1" fill="#a7cabe"/><circle cx="917" cy="163" r="1" fill="#a7cabe"/><circle cx="917" cy="192" r="1" fill="#a7cabe"/><circle cx="917" cy="221" r="1" fill="#a7cabe"/><circle cx="917" cy="250" r="1" fill="#a7cabe"/><circle cx="917" cy="279" r="1" fill="#a7cabe"/><circle cx="917" cy="308" r="1" fill="#a7cabe"/><circle cx="917" cy="337" r="1" fill="#a7cabe"/><circle cx="917" cy="366" r="1" fill="#a7cabe"/><circle cx="917" cy="395" r="1" fill="#a7cabe"/><circle cx="917" cy="424" r="1" fill="#a7cabe"/><circle cx="917" cy="453" r="1" fill="#a7cabe"/><circle cx="917" cy="482" r="1" fill="#a7cabe"/><circle cx="917" cy="511" r="1" fill="#a7cabe"/><circle cx="917" cy="540" r="1" fill="#a7cabe"/><circle cx="917" cy="569" r="1" fill="#a7cabe"/><circle cx="917" cy="598" r="1" fill="#a7cabe"/><circle cx="917" cy="627" r="1" fill="#a7cabe"/><circle cx="917" cy="656" r="1" fill="#a7cabe"/><circle cx="917" cy="685" r="1" fill="#a7cabe"/><circle cx="917" cy="714" r="1" fill="#a7cabe"/><circle cx="946" cy="18" r="1" fill="#a7cabe"/><circle cx="946" cy="47" r="1" fill="#a7cabe"/><circle cx="946" cy="76" r="1" fill="#a7cabe"/><circle cx="946" cy="105" r="1" fill="#a7cabe"/><circle cx="946" cy="134" r="1" fill="#a7cabe"/><circle cx="946" cy="163" r="1" fill="#a7cabe"/><circle cx="946" cy="192" r="1" fill="#a7cabe"/><circle cx="946" cy="221" r="1" fill="#a7cabe"/><circle cx="946" cy="250" r="1" fill="#a7cabe"/><circle cx="946" cy="279" r="1" fill="#a7cabe"/><circle cx="946" cy="308" r="1" fill="#a7cabe"/><circle cx="946" cy="337" r="1" fill="#a7cabe"/><circle cx="946" cy="366" r="1" fill="#a7cabe"/><circle cx="946" cy="395" r="1" fill="#a7cabe"/><circle cx="946" cy="424" r="1" fill="#a7cabe"/><circle cx="946" cy="453" r="1" fill="#a7cabe"/><circle cx="946" cy="482" r="1" fill="#a7cabe"/><circle cx="946" cy="511" r="1" fill="#a7cabe"/><circle cx="946" cy="540" r="1" fill="#a7cabe"/><circle cx="946" cy="569" r="1" fill="#a7cabe"/><circle cx="946" cy="598" r="1" fill="#a7cabe"/><circle cx="946" cy="627" r="1" fill="#a7cabe"/><circle cx="946" cy="656" r="1" fill="#a7cabe"/><circle cx="946" cy="685" r="1" fill="#a7cabe"/><circle cx="946" cy="714" r="1" fill="#a7cabe"/><circle cx="975" cy="18" r="1" fill="#a7cabe"/><circle cx="975" cy="47" r="1" fill="#a7cabe"/><circle cx="975" cy="76" r="1" fill="#a7cabe"/><circle cx="975" cy="105" r="1" fill="#a7cabe"/><circle cx="975" cy="134" r="1" fill="#a7cabe"/><circle cx="975" cy="163" r="1" fill="#a7cabe"/><circle cx="975" cy="192" r="1" fill="#a7cabe"/><circle cx="975" cy="221" r="1" fill="#a7cabe"/><circle cx="975" cy="250" r="1" fill="#a7cabe"/><circle cx="975" cy="279" r="1" fill="#a7cabe"/><circle cx="975" cy="308" r="1" fill="#a7cabe"/><circle cx="975" cy="337" r="1" fill="#a7cabe"/><circle cx="975" cy="366" r="1" fill="#a7cabe"/><circle cx="975" cy="395" r="1" fill="#a7cabe"/><circle cx="975" cy="424" r="1" fill="#a7cabe"/><circle cx="975" cy="453" r="1" fill="#a7cabe"/><circle cx="975" cy="482" r="1" fill="#a7cabe"/><circle cx="975" cy="511" r="1" fill="#a7cabe"/><circle cx="975" cy="540" r="1" fill="#a7cabe"/><circle cx="975" cy="569" r="1" fill="#a7cabe"/><circle cx="975" cy="598" r="1" fill="#a7cabe"/><circle cx="975" cy="627" r="1" fill="#a7cabe"/><circle cx="975" cy="656" r="1" fill="#a7cabe"/><circle cx="975" cy="685" r="1" fill="#a7cabe"/><circle cx="975" cy="714" r="1" fill="#a7cabe"/><text x="79" y="93" font-family="Arial,Helvetica,sans-serif" font-size="17" fill="#2e7460" font-weight="700" letter-spacing="2">MENOS TAREFAS REPETITIVAS.</text><text x="77" y="143" font-family="Arial,Helvetica,sans-serif" font-size="34" fill="#143c32" font-weight="700" >Mais tempo para o que importa.</text><path d="M250 335H380Q405 335 405 359V421H548M650 421H711Q738 421 738 395V335H782" fill="none" stroke="#5b9c86" stroke-width="3" stroke-dasharray="7 7"/><rect x="76" y="248" width="225" height="159" rx="11" fill="#fff" stroke="#b2d2c5" stroke-width="1"/><rect x="94" y="266" width="41" height="40" rx="8" fill="#e1f1e9" /><text x="104" y="293" font-family="Arial,Helvetica,sans-serif" font-size="17" fill="#397b66" font-weight="700" >01</text><text x="95" y="342" font-family="Arial,Helvetica,sans-serif" font-size="25" fill="#143c32" font-weight="700" >Receber</text><text x="95" y="369" font-family="Arial,Helvetica,sans-serif" font-size="13" fill="#617f73" font-weight="400" >Formulário ou planilha</text><rect x="393" y="354" width="225" height="159" rx="11" fill="#fff" stroke="#b2d2c5" stroke-width="1"/><rect x="411" y="372" width="41" height="40" rx="8" fill="#e1f1e9" /><text x="421" y="399" font-family="Arial,Helvetica,sans-serif" font-size="17" fill="#397b66" font-weight="700" >02</text><text x="412" y="448" font-family="Arial,Helvetica,sans-serif" font-size="25" fill="#143c32" font-weight="700" >Organizar</text><text x="412" y="475" font-family="Arial,Helvetica,sans-serif" font-size="13" fill="#617f73" font-weight="400" >Validação dos dados</text><rect x="700" y="248" width="225" height="159" rx="11" fill="#fff" stroke="#b2d2c5" stroke-width="1"/><rect x="718" y="266" width="41" height="40" rx="8" fill="#e1f1e9" /><text x="728" y="293" font-family="Arial,Helvetica,sans-serif" font-size="17" fill="#397b66" font-weight="700" >03</text><text x="719" y="342" font-family="Arial,Helvetica,sans-serif" font-size="25" fill="#143c32" font-weight="700" >Conectar</text><text x="719" y="369" font-family="Arial,Helvetica,sans-serif" font-size="13" fill="#617f73" font-weight="400" >Registro no sistema</text><rect x="76" y="563" width="847" height="58" rx="9" fill="#cce7dc" /><text x="104" y="599" font-family="Arial,Helvetica,sans-serif" font-size="15" fill="#346752" font-weight="700" letter-spacing="1">UM FLUXO PENSADO PARA A SUA ROTINA</text></svg>